<?xml version="1.0" encoding="UTF-8" standalone="no"?>
<!DOCTYPE svg PUBLIC "-//W3C//DTD SVG 1.1//EN" "http://www.w3.org/Graphics/SVG/1.1/DTD/svg11.dtd">
<svg width="100%" height="100%" viewBox="0 0 9167 9167" version="1.1" xmlns="http://www.w3.org/2000/svg" xmlns:xlink="http://www.w3.org/1999/xlink" xml:space="preserve" xmlns:serif="http://www.serif.com/" style="fill-rule:evenodd;clip-rule:evenodd;stroke-linejoin:round;stroke-miterlimit:2;">
    <g transform="matrix(4.16667,0,0,4.16667,0,0)">
        <rect x="0" y="0" width="2200" height="2200" style="fill:rgb(0,233,255);fill-rule:nonzero;"/>
        <path d="M2052.23,1241.63L2052.23,1871.04C2052.23,1964.93 1976.11,2041.04 1882.23,2041.04L1252.82,2041.04C1237.73,2041.04 1225.51,2028.81 1225.51,2013.73L1225.51,1776.82C1225.51,1757.29 1245.38,1744.14 1263.41,1751.65C1279.82,1758.49 1297.88,1762.16 1316.82,1761.91C1389.55,1760.94 1448.7,1701.42 1449.23,1628.68C1449.78,1554.08 1389.47,1493.44 1315,1493.44C1296.73,1493.44 1279.32,1497.09 1263.45,1503.69C1245.41,1511.2 1225.51,1498.24 1225.51,1478.7L1225.51,1241.63C1225.51,1226.55 1237.73,1214.32 1252.82,1214.32L1482.16,1214.32C1499.91,1214.32 1513.15,1230.99 1508.77,1248.19C1505.94,1259.3 1504.5,1270.98 1504.63,1283.01C1505.46,1355.84 1565.03,1415.14 1637.86,1415.68C1712.46,1416.22 1773.11,1355.91 1773.11,1281.44C1773.11,1270.08 1771.7,1259.05 1769.04,1248.51C1764.67,1231.17 1777.59,1214.32 1795.47,1214.32L2024.91,1214.32C2040,1214.32 2052.23,1226.55 2052.23,1241.63Z" style="fill:rgb(43,95,172);fill-rule:nonzero;"/>
        <path d="M147.775,958.367L147.775,328.96C147.775,235.072 223.887,158.96 317.775,158.96L947.182,158.96C962.267,158.96 974.495,171.188 974.495,186.273L974.495,423.18C974.495,442.711 954.622,455.86 936.593,448.349C920.183,441.513 902.124,437.84 883.179,438.092C810.448,439.059 751.299,498.584 750.769,571.319C750.225,645.918 810.532,706.56 885.005,706.56C903.269,706.56 920.681,702.914 936.553,696.308C954.593,688.799 974.495,701.762 974.495,721.303L974.495,958.367C974.495,973.452 962.267,985.68 947.182,985.68L717.843,985.68C700.094,985.68 686.846,969.012 691.227,951.813C694.059,940.696 695.503,929.024 695.366,916.995C694.537,844.162 634.973,784.856 562.138,784.324C487.538,783.779 426.895,844.086 426.895,918.56C426.895,929.921 428.305,940.954 430.961,951.491C435.331,968.825 422.41,985.68 404.532,985.68L175.088,985.68C160.003,985.68 147.775,973.452 147.775,958.367Z" style="fill:rgb(43,95,172);fill-rule:nonzero;"/>
        <path d="M1198.22,1628.68C1197.69,1701.42 1138.54,1760.94 1065.81,1761.91C1046.84,1762.16 1028.75,1758.48 1012.32,1751.62C994.333,1744.11 974.495,1757.25 974.495,1776.74L974.495,2013.78C974.495,2028.84 962.291,2041.04 947.237,2041.04L317.775,2041.04C223.887,2041.04 147.775,1964.93 147.775,1871.04L147.775,1241.58C147.775,1226.52 159.979,1214.32 175.033,1214.32L404.426,1214.32C422.176,1214.32 435.424,1197.65 431.042,1180.45C428.211,1169.33 426.767,1157.66 426.904,1145.63C427.734,1072.8 487.299,1013.49 560.134,1012.96C634.734,1012.42 695.375,1072.73 695.375,1147.2C695.375,1158.59 693.959,1169.64 691.292,1180.2C686.921,1197.5 699.826,1214.32 717.667,1214.32L947.237,1214.32C962.291,1214.32 974.495,1226.52 974.495,1241.58L974.495,1478.7C974.495,1498.24 994.397,1511.2 1012.44,1503.69C1028.31,1497.09 1045.72,1493.44 1063.99,1493.44C1138.46,1493.44 1198.77,1554.08 1198.22,1628.68Z" style="fill:rgb(77,129,194);fill-rule:nonzero;"/>
        <path d="M2024.97,985.68L1795.57,985.68C1777.82,985.68 1764.58,1002.35 1768.96,1019.55C1771.79,1030.66 1773.23,1042.34 1773.1,1054.36C1772.27,1127.2 1712.7,1186.5 1639.87,1187.04C1565.27,1187.58 1504.63,1127.27 1504.63,1052.8C1504.63,1041.41 1506.04,1030.36 1508.71,1019.8C1513.08,1002.5 1500.17,985.68 1482.33,985.68L1252.76,985.68C1237.71,985.68 1225.51,973.476 1225.51,958.422L1225.51,721.378C1225.51,701.886 1205.67,688.752 1187.68,696.259C1171.25,703.116 1153.16,706.8 1134.19,706.548C1061.46,705.581 1002.31,646.056 1001.78,573.321C1001.23,498.722 1061.54,438.08 1136.02,438.08C1154.28,438.08 1171.69,441.726 1187.56,448.332C1205.6,455.841 1225.51,442.878 1225.51,423.338L1225.51,186.218C1225.51,171.164 1237.71,158.96 1252.76,158.96L1882.23,158.96C1976.11,158.96 2052.23,235.072 2052.23,328.96L2052.23,958.422C2052.23,973.476 2040.02,985.68 2024.97,985.68Z" style="fill:rgb(77,129,194);fill-rule:nonzero;"/>
    </g>
</svg>
